<svg width="71" height="71" viewBox="0 0 71 71" fill="none" xmlns="http://www.w3.org/2000/svg">
<g clip-path="url(#clip0_34_2)">
<path d="M65.2525 37.2194C65.0387 36.1052 64.0642 35.2995 62.9297 35.2988H60.6446L60.4766 34.2918C60.309 33.2803 59.5121 32.4901 58.4993 32.331C58.2744 32.2955 58.0472 32.2718 57.8236 32.2411C58.2111 30.432 57.8891 28.5432 56.9242 26.9646C57.434 25.6422 57.3389 24.1628 56.6639 22.9166C55.9889 21.6704 54.8018 20.7825 53.4157 20.487C52.5295 15.7442 48.4034 12.2967 43.5786 12.2676C43.4603 12.2676 43.355 12.283 43.2425 12.2865C42.4716 11.0758 41.2006 10.2723 39.7762 10.0951C38.3518 9.91794 36.9227 10.3856 35.8787 11.3706C34.5634 10.5157 33.0288 10.0599 31.4601 10.0583C28.9326 10.0687 26.5504 11.2418 25.0015 13.2391C23.2815 12.7376 21.4268 13.0455 19.9613 14.076C18.4957 15.1064 17.5784 16.7475 17.4684 18.5357C15.6618 19.2951 14.4863 21.0632 14.4852 23.0229C14.4889 23.3626 14.5285 23.701 14.6035 24.0323C13.0059 26.4408 12.5884 29.4444 13.4687 32.1973C13.1516 32.2411 12.8273 32.2801 12.522 32.3251C11.5039 32.4787 10.6999 33.2693 10.5293 34.2847L10.3613 35.2953H8.07032C6.93769 35.296 5.96439 36.0992 5.74862 37.2111L0.566805 63.8148C0.364438 64.8567 0.638858 65.9344 1.31485 66.7527C1.99083 67.5709 2.99747 68.0438 4.05882 68.0416H28.7361C29.7159 69.6581 32.6931 70.4083 35.5 70.4083C38.2773 70.4083 41.2261 69.6758 42.2343 68.0416H66.9412C68.0023 68.0437 69.0087 67.571 69.6846 66.7531C70.3605 65.9351 70.6351 64.8577 70.4332 63.816L65.2525 37.2194ZM18.0636 25.1647C17.1028 24.5871 16.6442 23.4402 16.9419 22.3594C17.2395 21.2785 18.2205 20.5281 19.3416 20.5237C20.1262 20.5214 20.8646 20.8943 21.3284 21.5272C21.5804 21.8667 21.9943 22.0459 22.4143 21.9975C22.8343 21.949 23.1965 21.6801 23.3645 21.2922C23.5325 20.9042 23.4808 20.4561 23.2288 20.1166C22.4253 19.0427 21.2076 18.3557 19.8729 18.2233C20.2257 16.5661 21.6871 15.3797 23.3815 15.375C23.5259 15.3824 23.6697 15.3982 23.8122 15.4224C23.717 15.665 23.6341 15.9122 23.5637 16.1631C23.4164 16.7895 23.7967 17.4188 24.4197 17.5797C25.0428 17.7406 25.6802 17.3742 25.8546 16.7548C25.9892 16.2347 26.1959 15.736 26.4688 15.2733C27.5185 13.5148 29.4122 12.4341 31.4601 12.425C32.5747 12.4299 33.6638 12.7588 34.5947 13.3716C34.4174 13.87 34.3234 14.3941 34.3167 14.923C34.3167 15.5765 34.8465 16.1063 35.5 16.1063C36.1535 16.1063 36.6833 15.5765 36.6833 14.923C36.6833 13.5483 37.7978 12.4339 39.1725 12.4339C40.5472 12.4339 41.6616 13.5483 41.6616 14.923C41.6616 15.5765 42.1914 16.1063 42.8449 16.1063C43.4985 16.1063 44.0283 15.5765 44.0283 14.923C44.0283 14.8319 44.0058 14.7455 44.0011 14.6544C47.3894 14.8634 50.2386 17.2719 51.0088 20.5781C50.4568 20.7388 49.9381 20.9974 49.4775 21.3414C49.1393 21.5951 48.9621 22.0099 49.0127 22.4296C49.0633 22.8493 49.3339 23.2102 49.7227 23.3763C50.1115 23.5423 50.5593 23.4884 50.8975 23.2347C51.8431 22.5346 53.1494 22.5904 54.0318 23.3687C54.9142 24.147 55.1329 25.436 54.5564 26.4617C54.2988 26.9146 53.9074 27.2767 53.4358 27.4983C52.9412 27.7377 52.6766 28.2861 52.7968 28.8222C52.917 29.3584 53.3905 29.7412 53.9399 29.7466C54.1134 29.7469 54.2848 29.7085 54.4416 29.6342C54.7552 29.4822 55.0516 29.2969 55.3256 29.0816C55.9373 30.8206 55.5536 32.7547 54.3245 34.1285L54.2961 34.1581C52.7544 35.8281 50.2952 36.2794 48.2611 35.2657C48.0618 35.1604 47.8704 35.041 47.6883 34.9083C48.5599 33.6864 48.6803 32.0813 48.0007 30.743C47.8105 30.3652 47.4332 30.1177 47.0109 30.0936C46.5887 30.0695 46.1856 30.2724 45.9536 30.6261C45.7216 30.9797 45.6959 31.4302 45.8861 31.808C46.2752 32.5901 46.0325 33.5392 45.3157 34.0386C44.8948 34.3188 44.3748 34.4074 43.8848 34.2825C43.3948 34.1575 42.9808 33.8306 42.7455 33.383C42.5564 33.0048 42.1798 32.7563 41.7577 32.7311C41.3356 32.7058 40.9321 32.9077 40.6992 33.2606C40.4663 33.6136 40.4394 34.0639 40.6286 34.4421C41.3225 35.843 42.7524 36.7277 44.3158 36.7235C44.8248 36.7201 45.3286 36.6209 45.8009 36.4313C46.2236 36.8013 46.6892 37.1191 47.1878 37.3779C48.8743 38.2521 50.8354 38.4334 52.6536 37.8832C51.4842 39.4799 49.7341 40.5531 47.7806 40.8711C47.1729 40.9701 46.7426 41.5185 46.7911 42.1323C46.8396 42.7461 47.3507 43.2201 47.9664 43.2224C48.0294 43.2224 48.0923 43.2176 48.1546 43.2082C48.8751 43.0835 49.5793 42.8778 50.2538 42.5952C50.6183 43.2398 50.9142 43.9207 51.1366 44.627C51.1773 44.7504 51.1981 44.8794 51.1981 45.0092C51.1978 45.5207 50.8923 45.9826 50.4218 46.1831C49.8775 46.3936 49.2596 46.2275 48.8941 45.7725C47.9777 44.6963 46.7777 43.8989 45.4305 43.4709C42.8733 42.6142 41.8864 41.8486 41.4675 41.0155C42.0815 40.9389 42.6882 40.8122 43.2816 40.6368C43.6858 40.5125 43.9929 40.1821 44.0873 39.7699C44.1818 39.3577 44.0492 38.9265 43.7395 38.6386C43.4297 38.3508 42.99 38.25 42.5858 38.3743C41.9218 38.578 41.2364 38.7039 40.5434 38.7494C39.2082 38.8538 37.8668 38.6514 36.6218 38.1577C36.1543 37.9754 35.6227 38.1078 35.2953 38.4879C33.5724 40.467 30.6236 40.8033 28.4993 39.2631C26.3749 37.7229 25.7779 34.8158 27.1232 32.5629C27.3411 32.1992 27.3484 31.7467 27.1423 31.3761C26.9362 31.0055 26.5481 30.7729 26.1241 30.7661C25.7001 30.7593 25.3046 30.9791 25.0867 31.3429C24.8043 31.8234 24.5773 32.3343 24.4098 32.8659C23.4779 32.8169 22.7432 32.0547 22.7283 31.1216V31.0921C22.7277 30.7798 22.6023 30.4808 22.3801 30.2614C22.1578 30.0421 21.8572 29.9206 21.5449 29.9241C20.8886 29.9306 20.3603 30.4652 20.3616 31.1216C20.3669 33.2202 21.9495 34.9792 24.0359 35.2053C24.0401 35.602 24.0761 35.9977 24.1435 36.3887C21.5014 36.9604 18.761 36.0107 17.0393 33.9266C15.3175 31.8425 14.902 28.9721 15.962 26.4853C16.2267 26.7532 16.5222 26.9887 16.8424 27.1871C17.4014 27.5145 18.1198 27.3316 18.4541 26.7767C18.7884 26.2217 18.6143 25.5011 18.0636 25.16V25.1647ZM12.8569 34.6705C13.4024 34.59 13.9657 34.519 14.5254 34.4456C16.7133 37.9419 20.8978 39.6396 24.9032 38.6559C25.9795 40.6986 27.9461 42.1231 30.2224 42.5089C32.4988 42.8947 34.8249 42.1977 36.5141 40.6238C37.3183 40.8637 38.1465 41.0137 38.9837 41.0711C39.5553 43.239 41.2072 44.5525 44.6779 45.7157C45.6136 46.009 46.4482 46.5588 47.0872 47.3025C47.7976 48.1473 48.8425 48.6381 49.9461 48.6456C50.4288 48.6455 50.9065 48.5481 51.3507 48.3593C52.6921 47.786 53.5623 46.468 53.5624 45.0092C53.5635 44.6288 53.5027 44.2508 53.3825 43.8898C53.1164 43.0537 52.7659 42.2469 52.3365 41.4817C54.3487 40.0352 55.7504 37.8914 56.2687 35.468C56.5207 35.1686 56.7486 34.8497 56.9503 34.5143C57.3467 34.5651 57.7431 34.6101 58.1419 34.6764L62.4137 60.3713C54.0635 57.583 45.0335 57.583 36.6833 60.3713V45.5583C36.6833 44.9048 36.1535 44.375 35.5 44.375C34.8465 44.375 34.3167 44.9048 34.3167 45.5583V60.376C25.9674 57.5852 16.9376 57.5818 8.58626 60.3665L12.8569 34.6705ZM3.13701 65.2395C2.91341 64.9694 2.82226 64.6135 2.88851 64.2692L8.07032 37.6655H9.96366L6.25036 59.982C6.11975 60.7943 6.41884 61.6163 7.0409 62.1547C7.66296 62.6931 8.51937 62.8713 9.30454 62.6255C15.6129 60.5817 22.3336 60.1553 28.8497 61.3854L28.497 65.675H4.05882C3.70183 65.6752 3.36354 65.5154 3.13701 65.2395ZM35.5 68.0416C32.6493 68.0416 31.014 67.1991 30.7738 66.824L31.1808 61.9132C32.482 62.2371 33.7553 62.6641 34.9888 63.19C35.1483 63.2668 35.3229 63.3073 35.5 63.3083C35.6775 63.308 35.8527 63.2676 36.0124 63.19C37.2451 62.661 38.5181 62.2313 39.8192 61.9049L40.2262 66.8228C39.986 67.1991 38.3506 68.0416 35.5 68.0416ZM67.863 65.2395C67.6365 65.5154 67.2981 65.6752 66.9412 65.675H42.5065L42.1515 61.3771C48.6712 60.1496 55.3948 60.5797 61.7049 62.6279C62.4899 62.8704 63.3445 62.6897 63.9641 62.1503C64.5838 61.6108 64.8805 60.7893 64.7484 59.9784L61.0387 37.6667H62.932L68.115 64.268C68.1807 64.6132 68.0882 64.9697 67.863 65.2395Z" fill="#F8F9FA"/>
<path d="M31.5784 27.4356C31.094 27.8739 31.0564 28.6218 31.4944 29.1064C32.4982 30.2148 33.8249 30.9797 35.287 31.2932C34.6248 32.2264 33.551 32.7801 32.4068 32.7783C31.7532 32.7783 31.2234 33.3081 31.2234 33.9617C31.2234 34.6152 31.7532 35.145 32.4068 35.145C34.8565 35.1548 37.0545 33.6418 37.9199 31.35C40.8623 30.8624 43.1918 28.5976 43.762 25.67C43.8501 25.2513 43.7053 24.8176 43.3833 24.5358C43.0613 24.2541 42.6122 24.1681 42.2089 24.311C41.8055 24.4539 41.5108 24.8034 41.438 25.2251C41.2059 26.4456 40.5018 27.5252 39.4784 28.2296C37.5096 29.5556 34.8692 29.2546 33.2493 27.5196C32.811 27.0352 32.0631 26.9976 31.5784 27.4356Z" fill="#F8F9FA"/>
<path d="M27.4534 26.1517C28.1069 26.1517 28.6367 25.6219 28.6367 24.9683C28.6367 24.1523 28.9608 23.3698 29.5378 22.7928C30.1148 22.2158 30.8974 21.8917 31.7134 21.8917C32.3669 21.8917 32.8967 21.3619 32.8967 20.7083C32.8967 20.0548 32.3669 19.525 31.7134 19.525C28.7084 19.5283 26.2733 21.9634 26.27 24.9683C26.27 25.2822 26.3947 25.5832 26.6166 25.8051C26.8385 26.027 27.1395 26.1517 27.4534 26.1517Z" fill="#F8F9FA"/>
<path d="M36.6833 2.95831V1.77498C36.6833 1.12144 36.1535 0.591644 35.5 0.591644C34.8464 0.591644 34.3167 1.12144 34.3167 1.77498V2.95831C34.3167 3.61185 34.8464 4.14164 35.5 4.14164C36.1535 4.14164 36.6833 3.61185 36.6833 2.95831Z" fill="#F8F9FA"/>
<path d="M54.9185 9.08324L53.7351 10.2666C53.4275 10.5637 53.3041 11.0036 53.4124 11.4174C53.5207 11.8311 53.8438 12.1542 54.2576 12.2625C54.6713 12.3708 55.1113 12.2474 55.4084 11.9398L56.5917 10.7565C56.8993 10.4594 57.0227 10.0194 56.9144 9.60567C56.8061 9.19195 56.483 8.86884 56.0693 8.76055C55.6555 8.65226 55.2156 8.77563 54.9185 9.08324Z" fill="#F8F9FA"/>
<path d="M16.4282 12.2865C16.9067 12.2864 17.3381 11.9981 17.5212 11.556C17.7043 11.1139 17.6031 10.605 17.2648 10.2666L16.0815 9.08324C15.7844 8.77563 15.3444 8.65226 14.9307 8.76055C14.5169 8.86884 14.1938 9.19195 14.0855 9.60567C13.9772 10.0194 14.1006 10.4594 14.4082 10.7565L15.5916 11.9398C15.8134 12.1617 16.1144 12.2865 16.4282 12.2865Z" fill="#F8F9FA"/>
<path d="M25.5375 7.30705C25.693 7.30672 25.8469 7.27617 25.9907 7.21712C26.2808 7.09698 26.5112 6.86651 26.6313 6.57644C26.7513 6.28637 26.7512 5.96048 26.6309 5.6705L25.2713 2.3903C25.1155 1.99078 24.7558 1.70678 24.3311 1.64796C23.9063 1.58914 23.483 1.76471 23.2245 2.10687C22.9661 2.44904 22.9129 2.90425 23.0857 3.29673L24.4441 6.57693C24.6274 7.01902 25.059 7.30717 25.5375 7.30705Z" fill="#F8F9FA"/>
<path d="M47.2742 1.75013C46.6706 1.50045 45.9789 1.78698 45.7287 2.39031L44.3691 5.67051C44.2484 5.96063 44.2481 6.28681 44.3682 6.57716C44.4883 6.86751 44.7189 7.09818 45.0093 7.21831C45.1531 7.27737 45.307 7.30791 45.4625 7.30824C45.9411 7.30836 46.3726 7.02021 46.5559 6.57813L47.9143 3.29793C48.035 3.00781 48.0353 2.68162 47.9152 2.39127C47.7951 2.10093 47.5645 1.87026 47.2742 1.75013Z" fill="#F8F9FA"/>
<path d="M59.5513 21.397C59.7068 21.3967 59.8609 21.3657 60.0045 21.3059L63.2835 19.9474C63.6741 19.7857 63.9488 19.4279 64.0041 19.0087C64.0594 18.5896 63.8868 18.1728 63.5515 17.9153C63.2161 17.6579 62.7689 17.5989 62.3782 17.7606L59.098 19.1191C58.5746 19.3341 58.2766 19.8896 58.3871 20.4446C58.4975 20.9996 58.9854 21.3987 59.5513 21.397Z" fill="#F8F9FA"/>
<path d="M10.9955 21.3059C11.5994 21.5562 12.2918 21.2696 12.5421 20.6657C12.7924 20.0619 12.5058 19.3694 11.9019 19.1191L8.62173 17.7606C8.01786 17.5107 7.32568 17.7975 7.0757 18.4014C6.82573 19.0053 7.11261 19.6975 7.71648 19.9474L10.9955 21.3059Z" fill="#F8F9FA"/>
</g>
<defs>
<clipPath id="clip0_34_2">
<rect width="71" height="71" fill="white"/>
</clipPath>
</defs>
</svg>
