<?xml version="1.0" ?><!-- Uploaded to: SVG Repo, www.svgrepo.com, Generator: SVG Repo Mixer Tools -->
<svg fill="#FFFF" width="800px" height="800px" viewBox="0 0 64 64" data-name="Layer 1" id="Layer_1" xmlns="http://www.w3.org/2000/svg"><title/><rect height="2" width="6" x="8" y="22"/><rect height="2" width="6" x="50" y="22"/><rect height="5.99998" transform="translate(-0.7401 14.51471) rotate(-45)" width="2.00002" x="16.15074" y="5.15075"/><rect height="5.99998" transform="translate(-13.04167 44.21277) rotate(-44.99959)" width="2.00002" x="45.84923" y="34.84924"/><rect height="2.00002" transform="translate(-21.74042 23.21404) rotate(-45.00124)" width="5.99998" x="14.15076" y="36.84922"/><rect height="2.00002" transform="translate(7.95897 35.51555) rotate(-45.00124)" width="5.99998" x="43.84925" y="7.15073"/><rect height="5" width="2" x="31" y="2"/><path d="M35.00482,60H28.99518C28.892,55.51868,16.30585,52,2,52v4.5531l19,.94739-.05273.999L2,57.55493V62H62V57.55493l-18.94727.94458L43,57.50049l19-.94739V52C47.69415,52,35.108,55.51868,35.00482,60Z"/><path d="M38,44a2,2,0,0,0-2-2H28a2,2,0,0,0,0,4h8A2,2,0,0,0,38,44Z"/><path d="M28.66669,47a2.03333,2.03333,0,0,0,0,4h6.66662a2.03333,2.03333,0,0,0,0-4Z"/><path d="M26,37.75l1.29,3.38h9.42L38,37.75a15,15,0,1,0-12,0Zm7-8.043A.99928.99928,0,0,1,33.293,29l5-5L39.707,25.41406,35,30.12109V39.707H33ZM25.707,24l5,5a.99928.99928,0,0,1,.293.707v10H29V30.12109l-4.707-4.707Z"/></svg>
