<?xml version="1.0" encoding="iso-8859-1"?>
<!-- Uploaded to: SVG Repo, www.svgrepo.com, Generator: SVG Repo Mixer Tools -->
<svg fill="#fff" height="800px" width="800px" version="1.1" id="Layer_1" xmlns="http://www.w3.org/2000/svg" xmlns:xlink="http://www.w3.org/1999/xlink" 
	 viewBox="0 0 512.001 512.001" xml:space="preserve">
<g>
	<g>
		<path d="M509.607,250.223l-70.195-70.195v-99.27c0-4.512-3.658-8.17-8.17-8.17h-99.269L261.777,2.393
			c-3.191-3.191-8.364-3.191-11.554,0l-70.195,70.194h-99.27c-4.512,0-8.17,3.658-8.17,8.17v99.27L2.393,250.223
			c-3.191,3.191-3.191,8.364,0,11.554l70.195,70.195v99.27c0,4.512,3.658,8.17,8.17,8.17h99.27l70.195,70.195
			c1.595,1.595,3.686,2.393,5.777,2.393c2.09,0,4.182-0.797,5.777-2.393l70.195-70.195h99.27c4.512,0,8.17-3.658,8.17-8.17v-99.27
			l70.195-70.195C512.798,258.587,512.798,253.412,509.607,250.223z M72.588,308.863L19.725,256l52.863-52.863V308.863z M256,19.724
			l52.863,52.863H203.136L256,19.724z M88.928,88.928h74.76l-74.76,74.76V88.928z M88.928,186.796l97.868-97.868h138.408
			l97.868,97.868v45.211C381.418,183.557,320.588,155.233,256,155.233c-64.589,0-125.418,28.324-167.072,76.774V186.796z
			 M196.304,196.302c15.946-15.946,37.147-24.727,59.698-24.727c22.551,0,43.752,8.781,59.698,24.727
			c15.946,15.946,24.727,37.147,24.727,59.698s-8.782,43.752-24.727,59.698c-15.946,15.946-37.147,24.727-59.698,24.727
			c-22.551,0-43.752-8.781-59.698-24.727C163.387,282.781,163.387,229.22,196.304,196.302z M185.283,327.763
			c-37.437-13.854-70.488-38.587-94.534-71.763c24.045-33.177,57.099-57.909,94.537-71.765c-0.176,0.174-0.361,0.337-0.536,0.512
			c-39.288,39.289-39.288,103.216,0,142.504C184.924,327.425,185.106,327.589,185.283,327.763z M327.254,327.251
			c19.032-19.032,29.514-44.337,29.514-71.252c0-26.915-10.482-52.221-29.514-71.252c-0.174-0.174-0.358-0.336-0.534-0.509
			c37.436,13.856,70.486,38.587,94.532,71.762c-24.043,33.173-57.093,57.905-94.526,71.761
			C326.9,327.588,327.081,327.425,327.254,327.251z M88.928,423.072v-74.76l74.76,74.76H88.928z M256,492.276l-52.863-52.863
			h105.727L256,492.276z M423.072,423.072h-74.76l74.76-74.76V423.072z M423.072,325.204l-97.868,97.868H186.796l-97.868-97.868
			c0,0,0-45.211,0-45.211C130.582,328.442,191.41,356.767,256,356.767c64.588,0,125.418-28.324,167.072-76.774V325.204z
			 M423.072,163.687l-74.76-74.76h74.76V163.687z M439.412,308.863V203.136L492.276,256L439.412,308.863z"/>
	</g>
</g>
<g>
	<g>
		<path d="M256,212.422c-24.027,0-43.574,19.547-43.574,43.574c0,24.027,19.546,43.574,43.574,43.574
			c24.027,0,43.574-19.548,43.574-43.574C299.574,231.969,280.027,212.422,256,212.422z M256,283.23
			c-15.017,0-27.234-12.217-27.234-27.234c0-15.017,12.216-27.234,27.234-27.234c15.017,0,27.234,12.217,27.234,27.234
			C283.234,271.013,271.017,283.23,256,283.23z"/>
	</g>
</g>
<g>
	<g>
		<path d="M328.898,133.427c-23.346-11.456-47.872-17.265-72.898-17.265c-25.028,0-49.555,5.81-72.9,17.267
			c-4.051,1.988-5.722,6.884-3.735,10.934c1.419,2.893,4.321,4.573,7.34,4.572c1.208,0,2.436-0.269,3.594-0.838
			c21.086-10.349,43.191-15.596,65.702-15.596c22.509,0,44.613,5.247,65.697,15.595c4.051,1.989,8.947,0.317,10.935-3.734
			C334.62,140.311,332.948,135.416,328.898,133.427z"/>
	</g>
</g>
<g>
	<g>
		<path d="M332.631,367.635c-1.988-4.051-6.883-5.721-10.935-3.734c-21.085,10.349-43.189,15.595-65.697,15.595
			c-22.511,0-44.616-5.247-65.702-15.596c-4.05-1.987-8.946-0.317-10.934,3.735c-1.988,4.05-0.316,8.946,3.735,10.934
			c23.346,11.459,47.874,17.269,72.901,17.269c25.026,0,49.552-5.81,72.897-17.267C332.947,376.582,334.619,371.687,332.631,367.635
			z"/>
	</g>
</g>
</svg>
